<svg class="svg-icon" style="width: 1em; height: 1em;vertical-align: middle;fill: currentColor;overflow: hidden;" viewBox="0 0 1024 1024" version="1.1" xmlns="http://www.w3.org/2000/svg"><path d="M512 204.8c-168.96 0-307.2 138.24-307.2 307.2s138.24 307.2 307.2 307.2 307.2-138.24 307.2-307.2-138.24-307.2-307.2-307.2z m0 552.96c-135.168 0-245.76-110.592-245.76-245.76s110.592-245.76 245.76-245.76 245.76 110.592 245.76 245.76-110.592 245.76-245.76 245.76z m30.72-258.048V368.64c0-11.264-9.216-20.48-20.48-20.48h-20.48c-11.264 0-20.48 9.216-20.48 20.48v143.36c0 8.192 3.072 16.384 9.216 21.504l98.304 98.304c8.192 8.192 20.48 8.192 28.672 0l14.336-14.336c8.192-8.192 8.192-20.48 0-28.672L542.72 499.712z"  /></svg>